<svg version="1" xmlns="http://www.w3.org/2000/svg" width="682.667" height="682.667" viewBox="0 0 512.000000 512.000000"><path d="M0 256v256h512V0H0v256zm248-128.4c19.5 15.2 37.2 28.8 39.3 30.2 2 1.3 3.7 2.9 3.7 3.4s-13.4 15.5-29.9 33.4L231.3 227l5.4 19.3c2.9 10.5 7.1 25.5 9.3 33.2 2.1 7.7 9.1 32.7 15.5 55.5 6.3 22.8 11.8 42.1 12 42.8.4 1-4.4 1.2-22.7 1l-23.2-.3-4.9-16.5c-2.6-9.1-10.2-34.9-16.7-57.4-6.6-22.5-12.1-41.1-12.3-41.3-.3-.2-7.4 6.3-16 14.4l-15.5 14.8-.1 43.3-.1 43.3-16.7-.6c-9.3-.3-21-.8-26-1.1l-9.3-.6V102l12.3-.1c6.7-.1 22.1-.5 34.2-.8 12.1-.4 29.7-.8 39-.9l17.1-.2 35.4 27.6zm132.5-12c11 2 20.3 4 20.8 4.3.4.4-4.9 36.5-11.9 80.2-6.9 43.6-14.7 93.5-17.4 110.8-2.8 17.3-5.2 31.6-5.4 31.8-.2.3-1.1-2.9-2.1-6.9-.9-4-5-21.6-9.1-39.1-4-17.4-10.8-46.2-15-64-4.1-17.7-9-38.7-10.9-46.7-1.9-8-5.9-25.3-9-38.5-3.1-13.2-6.7-28.6-8-34.3-1.4-5.7-2.5-10.5-2.5-10.6 0-.1 11.4 1.9 25.3 4.6 13.8 2.6 34.2 6.4 45.2 8.4zm1.8 262.6c3.1 8.9 5.6 16.2 5.4 16.3-.1.1-6.1 3.7-13.4 7.9l-13.2 7.7-13.6-9.1c-7.4-5-13.5-9.5-13.5-9.9 0-.4 2.7-7 6-14.7 3.3-7.6 6-14 6-14.2 0-.1 6.9-.2 15.4-.2h15.3l5.6 16.2z"/><path d="M171.1 161.1c-4.7.5-8.6 1.1-8.8 1.3-.2.1-.2 13.8-.1 30.4l.3 30.1 23.7-22.2c13-12.2 23.7-22.7 23.7-23.2.1-.6-3.8-4.7-8.6-9.2l-8.8-8.3-6.5.1c-3.6.1-10.3.6-14.9 1z"/></svg>